<?xml version="1.0" standalone="no"?>
<!DOCTYPE svg PUBLIC "-//W3C//DTD SVG 20010904//EN"
 "http://www.w3.org/TR/2001/REC-SVG-20010904/DTD/svg10.dtd">
<svg version="1.0" xmlns="http://www.w3.org/2000/svg"
 width="500.000000pt" height="500.000000pt" viewBox="0 0 500.000000 500.000000"
 preserveAspectRatio="xMidYMid meet">

<g transform="translate(0.000000,500.000000) scale(0.100000,-0.100000)"
fill="#000000" stroke="none">
<path d="M1990 2771 c-100 -33 -165 -107 -196 -226 -27 -99 -14 -185 35 -239
37 -41 80 -56 159 -56 169 0 282 131 282 327 0 135 -54 194 -184 199 -39 2
-82 0 -96 -5z m119 -82 c41 -14 61 -54 61 -123 0 -134 -79 -236 -181 -236 -79
0 -116 53 -105 153 9 92 49 166 106 195 50 25 73 27 119 11z"/>
<path d="M1186 2753 c-5 -19 -106 -492 -106 -499 0 -2 20 -4 44 -4 l44 0 11
53 c48 226 65 297 71 297 4 0 18 -78 31 -172 l24 -173 41 -3 41 -3 92 168 c52
92 98 173 103 178 14 13 6 -38 -30 -207 l-30 -138 43 0 c24 0 46 4 49 8 4 7
89 404 103 480 l6 33 -68 -3 -68 -3 -102 -185 c-56 -101 -107 -186 -112 -187
-5 -2 -20 82 -33 187 l-23 190 -63 0 c-51 0 -64 -3 -68 -17z"/>
<path d="M2384 2743 c3 -16 17 -122 31 -238 35 -284 24 -255 94 -255 l59 0
108 198 c59 108 122 223 140 255 19 32 34 60 34 63 0 2 -24 4 -54 4 l-54 0
-103 -196 c-56 -107 -105 -192 -109 -187 -4 4 -15 82 -24 173 -24 228 -17 210
-77 210 -50 0 -51 0 -45 -27z"/>
<path d="M2936 2753 c-6 -20 -106 -490 -106 -498 0 -3 22 -5 49 -5 l48 0 31
148 c18 81 42 198 55 260 l23 112 -47 0 c-37 0 -49 -4 -53 -17z"/>
<path d="M3176 2753 c-6 -20 -106 -490 -106 -498 0 -3 78 -5 174 -5 172 0 174
0 180 23 3 12 6 32 6 45 0 22 -2 22 -121 22 l-121 0 6 33 c4 17 9 49 13 70 l6
37 108 0 109 0 6 28 c3 15 7 33 10 40 2 9 -22 12 -101 12 -119 0 -116 -3 -94
86 13 50 4 47 146 44 l103 -2 10 27 c21 56 24 55 -159 55 -153 0 -170 -2 -175
-17z"/>
<path d="M3594 2447 c-3 -8 -4 -54 -2 -103 l3 -89 58 -1 c43 -2 57 2 57 12 0
10 -13 14 -45 14 l-45 0 0 90 c0 55 -4 90 -10 90 -6 0 -13 -6 -16 -13z"/>
<path d="M3760 2355 l0 -105 49 0 c27 0 56 3 65 6 28 11 6 24 -40 24 -44 0
-44 0 -44 35 0 34 1 35 40 35 22 0 40 5 40 10 0 6 -18 10 -40 10 -38 0 -40 2
-40 29 0 28 2 30 48 33 68 4 58 22 -15 26 l-63 3 0 -106z"/>
<path d="M3944 2447 c-3 -8 -4 -54 -2 -103 l3 -89 58 -3 c46 -2 57 0 57 13 0
11 -11 15 -46 15 -45 0 -45 0 -42 33 3 29 6 32 41 35 50 4 48 22 -3 22 -38 0
-40 2 -40 30 0 29 2 30 45 30 45 0 60 12 29 24 -29 11 -94 6 -100 -7z"/>
<path d="M3502 2274 c4 -21 22 -23 26 -1 2 10 -3 17 -13 17 -10 0 -15 -6 -13
-16z"/>
</g>
</svg>
